<svg width="512" height="512" viewBox="0 0 512 512" fill="none" xmlns="http://www.w3.org/2000/svg">
  <!-- Background circle -->
  <circle cx="256" cy="256" r="240" fill="url(#gradient1)"/>

  <!-- Gradient definition -->
  <defs>
    <linearGradient id="gradient1" x1="0%" y1="0%" x2="100%" y2="100%">
      <stop offset="0%" style="stop-color:#0ea5e9;stop-opacity:1" />
      <stop offset="100%" style="stop-color:#0284c7;stop-opacity:1" />
    </linearGradient>
  </defs>

  <!-- Airplane icon - more recognizable shape -->
  <g transform="translate(256, 180)">
    <!-- Main body -->
    <ellipse cx="0" cy="0" rx="18" ry="70" fill="#ffffff"/>
    <!-- Wings -->
    <path d="M-70 10 Q-60 0 -20 0 L20 0 Q60 0 70 10 L70 20 Q60 15 20 15 L-20 15 Q-60 15 -70 20 Z" fill="#ffffff"/>
    <!-- Tail -->
    <path d="M-25 55 L0 45 L25 55 L25 65 L0 60 L-25 65 Z" fill="#ffffff"/>
    <!-- Nose -->
    <ellipse cx="0" cy="-70" rx="12" ry="20" fill="#ffffff"/>
  </g>

  <!-- Split arrows -->
  <g stroke="#ffffff" stroke-width="6" stroke-linecap="round" fill="none">
    <path d="M180 340 L160 380" />
    <path d="M160 380 L145 365 M160 380 L175 375" stroke-linejoin="round"/>
    
    <path d="M256 350 L256 395" />
    <path d="M256 395 L241 380 M256 395 L271 380" stroke-linejoin="round"/>
    
    <path d="M332 340 L352 380" />
    <path d="M352 380 L337 375 M352 380 L367 365" stroke-linejoin="round"/>
  </g>

  <!-- Dollar coins at bottom -->
  <circle cx="140" cy="420" r="30" fill="#ffffff" opacity="0.95"/>
  <text x="140" y="428" font-family="Arial, sans-serif" font-size="26" font-weight="bold" fill="#0ea5e9" text-anchor="middle">$</text>

  <circle cx="256" cy="440" r="30" fill="#ffffff" opacity="0.95"/>
  <text x="256" y="448" font-family="Arial, sans-serif" font-size="26" font-weight="bold" fill="#0ea5e9" text-anchor="middle">$</text>

  <circle cx="372" cy="420" r="30" fill="#ffffff" opacity="0.95"/>
  <text x="372" y="428" font-family="Arial, sans-serif" font-size="26" font-weight="bold" fill="#0ea5e9" text-anchor="middle">$</text>
</svg>